<svg xmlns="http://www.w3.org/2000/svg" xml:space="preserve" width="4513.3242" height="500" viewBox="0 0 4513.3242 499.99999"><path d="M0 0c-2.273-2.239-4.963-2.699-8.301-2.699H-36.91c-2.278 0-4.299 1.84-5.244 4.433h-7.432c1.354-6.255 6.522-10.926 12.676-10.926h28.609c4.071 0 9.295.548 13.627 4.809l4.682 4.61-4.889 4.81C2.328 2.289 0 0 0 0" style="fill:#ed1b2f;fill-opacity:1;fill-rule:nonzero;stroke:none" transform="matrix(1.80911 0 0 -1.80911 505.347 -123.243)"/><path d="M0 0h18.648c.823 0 1.741-.909 1.741-2.214 0-1.307-.918-2.219-1.741-2.219H-5.244a9.52 9.52 0 0 1-.567-3.247c0-1.153.206-2.255.567-3.247h23.892c4.94 0 8.956 3.908 8.956 8.713 0 4.802-4.016 8.708-8.956 8.708H0c-6.154 0-11.322-4.671-12.676-10.927h7.432C-4.299-1.839-2.277 0 0 0" style="fill:#ed1b2f;fill-opacity:1;fill-rule:nonzero;stroke:none" transform="matrix(1.80911 0 0 -1.80911 438.573 -146.149)"/><path d="M0 0c0 1.151.205 2.254.566 3.247h-7.431a15.26 15.26 0 0 1 0-6.494H.566A9.515 9.515 0 0 0 0 0" style="fill:#802629;fill-opacity:1;fill-rule:nonzero;stroke:none" transform="matrix(1.80911 0 0 -1.80911 428.06 -132.256)"/><path d="M0 0h-8.121c-1.99 0-3.606-1.454-3.606-3.247 0-1.795 1.616-3.247 3.606-3.247H0A15.26 15.26 0 0 0 0 0" style="fill:#ed1b2f;fill-opacity:1;fill-rule:nonzero;stroke:none" transform="matrix(1.80911 0 0 -1.80911 415.64 -138.129)"/><path d="M0 0c2.275 2.239 4.965 2.698 8.303 2.698h2.375c1.992 0 3.609 1.453 3.609 3.247 0 1.793-1.617 3.247-3.609 3.247H8.303c-4.071 0-9.297-.547-13.627-4.809 0 0-2.03-1.995-4.569-4.495l4.891-4.814z" style="fill:#ed1b2f;fill-opacity:1;fill-rule:nonzero;stroke:none" transform="matrix(1.80911 0 0 -1.80911 541.35 -141.267)"/><path d="M0 0c-2.059 2.029-4.631 3.58-7.477 4.152-1.941.389-3.908-.531-4.443-2.26-.533-1.727.592-3.517 2.51-3.998 1.623-.404 2.92-1.128 4.086-2.276L.264-9.87c1.591 1.569 3.338 3.285 4.888 4.814z" style="fill:#0071ce;fill-opacity:1;fill-rule:nonzero;stroke:none" transform="matrix(1.80911 0 0 -1.80911 514.131 -150.212)"/><path d="M0 0h-2.379c-3.336 0-6.023.458-8.299 2.697l-5.047 4.981-4.89-4.81 4.613-4.554c4.33-4.262 9.557-4.808 13.623-4.808H0c1.994 0 3.607 1.454 3.607 3.247C3.607-1.453 1.994 0 0 0" style="fill:#0071ce;fill-opacity:1;fill-rule:nonzero;stroke:none" transform="matrix(1.80911 0 0 -1.80911 560.748 -118.465)"/><path d="M0 0c-1.551-1.529-3.297-3.245-4.889-4.813L0-9.624l4.891 4.811Z" style="fill:#0b1f8f;fill-opacity:1;fill-rule:nonzero;stroke:none" transform="matrix(1.80911 0 0 -1.80911 523.453 -141.064)"/><path d="M0 0h-2.221v-15.809H0v9.441h1.85v1.535H0Z" style="fill:#0b1f8f;fill-opacity:1;fill-rule:nonzero;stroke:none" transform="matrix(1.80911 0 0 -1.80911 567.196 -87.664)"/><path d="M0 0v3.264h-2.221V0c0-2.669-1.062-4.888-3.55-6.437l.974-1.259a9.145 9.145 0 0 1 3.688 3.592 9.167 9.167 0 0 1 3.687-3.592l.977 1.259C1.068-4.888 0-2.669 0 0" style="fill:#0b1f8f;fill-opacity:1;fill-rule:nonzero;stroke:none" transform="matrix(1.80911 0 0 -1.80911 554.699 -81.529)"/><path d="M0 0v4.144h-2.223V-7.369H0v5.834h1.844V0Z" style="fill:#0b1f8f;fill-opacity:1;fill-rule:nonzero;stroke:none" transform="matrix(1.80911 0 0 -1.80911 433.954 -80.168)"/><path d="M0 0c0 1.35.838 2.442 1.873 2.442C2.908 2.442 3.748 1.35 3.748 0c0-1.353-.84-2.443-1.875-2.443C.838-2.443 0-1.353 0 0m5.971 0c0 1.204-.569 2.217-1.457 2.88h1.552v1.536H2.959v1.402H.734V4.416h-3.107V2.88h1.607c-.89-.663-1.457-1.676-1.457-2.88 0-2.174 1.834-3.932 4.096-3.932S5.971-2.174 5.971 0" style="fill:#0b1f8f;fill-opacity:1;fill-rule:nonzero;stroke:none" transform="matrix(1.80911 0 0 -1.80911 415.566 -78.14)"/><path d="M0 0v1.535h-8.328v3.433h-2.223V1.31c0-.679.535-1.31 1.397-1.31z" style="fill:#0b1f8f;fill-opacity:1;fill-rule:nonzero;stroke:none" transform="matrix(1.80911 0 0 -1.80911 434.163 -59.155)"/><path d="M0 0V-6.957c0-.678.537-1.31 1.398-1.31h2.856v-4.628H-.814v-1.532h12.361v1.532H6.475v4.628h4.004v1.535H2.225v5.199h8.254V0Z" style="fill:#0b1f8f;fill-opacity:1;fill-rule:nonzero;stroke:none" transform="matrix(1.80911 0 0 -1.80911 469.048 -87.278)"/><path d="M0 0v2.654h5.307v1.534H4.189v4.15c0 .678-.539 1.31-1.398 1.31h-9.535V8.115h8.709V4.188h-9.488V2.654h5.302V0h-4.523v-1.533h8.709v-4.413h2.224V0Z" style="fill:#0b1f8f;fill-opacity:1;fill-rule:nonzero;stroke:none" transform="matrix(1.80911 0 0 -1.80911 453.477 -69.822)"/><path d="M0 0c0-.681.539-1.313 1.4-1.313h2.971v-3.689H-.816v-1.532h12.597v1.532H6.594v3.689h4.117V.225H2.223v2.193h8.488v4.164c0 .678-.537 1.311-1.398 1.311H0V6.359h8.49V3.953H0Z" style="fill:#0b1f8f;fill-opacity:1;fill-rule:nonzero;stroke:none" transform="matrix(1.80911 0 0 -1.80911 494.91 -73)"/><path d="M0 0v-1.533h8.594v-5.043h-3.1v2.983H3.271v-2.983h-4.404v-1.535H12.17v1.535h-1.356V-1.311C10.814-.633 10.277 0 9.416 0Z" style="fill:#0b1f8f;fill-opacity:1;fill-rule:nonzero;stroke:none" transform="matrix(1.80911 0 0 -1.80911 521.053 -87.278)"/><path d="M0 0c-1.4 0-2.535.967-2.535 2.154C-2.535 3.343-1.4 4.303 0 4.303c1.402 0 2.535-.96 2.535-2.149C2.535.967 1.402 0 0 0m0 5.801c-2.627 0-4.758-1.634-4.758-3.647 0-2.015 2.131-3.65 4.758-3.65 2.629 0 4.76 1.635 4.76 3.65 0 2.013-2.131 3.647-4.76 3.647" style="fill:#0b1f8f;fill-opacity:1;fill-rule:nonzero;stroke:none" transform="matrix(1.80911 0 0 -1.80911 530.905 -60.604)"/><path d="M0 0c-2.274-2.237-4.963-2.696-8.301-2.696H-36.91c-2.277 0-4.298 1.84-5.242 4.43h-7.434c1.354-6.255 6.522-10.923 12.676-10.923h28.609c4.07 0 9.295.545 13.626 4.807l4.684 4.61-4.89 4.812C2.325 2.291 0 0 0 0" style="fill:#ed1b2f;fill-opacity:1;fill-rule:nonzero;stroke:none" transform="matrix(17.58922 0 0 -17.58922 1078.446 338.373)"/><path d="M0 0h18.648c.824 0 1.741-.909 1.741-2.215 0-1.306-.917-2.217-1.741-2.217h-23.89a9.504 9.504 0 0 1-.568-3.247c0-1.153.206-2.254.568-3.249h23.89c4.939 0 8.956 3.909 8.956 8.713 0 4.803-4.017 8.71-8.956 8.71H0c-6.155 0-11.322-4.673-12.676-10.927h7.434C-4.298-1.84-2.277 0 0 0" style="fill:#ed1b2f;fill-opacity:1;fill-rule:nonzero;stroke:none" transform="matrix(17.58922 0 0 -17.58922 429.226 115.656)"/><path d="M0 0c0 1.151.205 2.253.567 3.247h-7.433A15.338 15.338 0 0 1-7.216 0c0-1.118.124-2.203.35-3.249H.567A9.516 9.516 0 0 0 0 0" style="fill:#802629;fill-opacity:1;fill-rule:nonzero;stroke:none" transform="matrix(17.58922 0 0 -17.58922 327.04 250.719)"/><path d="M0 0h-8.119c-1.992 0-3.608-1.454-3.608-3.247 0-1.795 1.616-3.249 3.608-3.249H0a15.357 15.357 0 0 0-.35 3.249C-.35-2.13-.226-1.045 0 0" style="fill:#ed1b2f;fill-opacity:1;fill-rule:nonzero;stroke:none" transform="matrix(17.58922 0 0 -17.58922 206.269 193.606)"/><path d="M0 0c2.273 2.237 4.964 2.697 8.302 2.697h2.375c1.994 0 3.609 1.453 3.609 3.246s-1.615 3.249-3.609 3.249H8.302c-4.071 0-9.296-.546-13.627-4.81 0 0-2.028-1.994-4.568-4.495l4.888-4.812z" style="fill:#ed1b2f;fill-opacity:1;fill-rule:nonzero;stroke:none" transform="matrix(17.58922 0 0 -17.58922 1428.496 163.1)"/><path d="M0 0c-2.06 2.029-4.631 3.58-7.478 4.151-1.94.389-3.909-.531-4.441-2.258-.534-1.729.589-3.518 2.511-3.999 1.619-.404 2.919-1.129 4.084-2.275L.264-9.868l4.889 4.811z" style="fill:#0071ce;fill-opacity:1;fill-rule:nonzero;stroke:none" transform="matrix(17.58922 0 0 -17.58922 1163.85 76.149)"/><path d="M0 0h-2.377c-3.338 0-6.025.458-8.301 2.696l-5.049 4.984-4.887-4.813 4.612-4.553c4.33-4.261 9.557-4.808 13.625-4.808H0c1.993 0 3.609 1.453 3.609 3.247C3.609-1.454 1.993 0 0 0" style="fill:#0071ce;fill-opacity:1;fill-rule:nonzero;stroke:none" transform="matrix(17.58922 0 0 -17.58922 1617.083 384.803)"/><path d="m0 0-4.89-4.812L0-9.624l4.888 4.812Z" style="fill:#0b1f8f;fill-opacity:1;fill-rule:nonzero;stroke:none" transform="matrix(17.58922 0 0 -17.58922 1254.493 165.092)"/><path d="M0 0h-3.704v-26.352H0v15.737h3.079v2.558H0Z" style="fill:#0b1f8f;fill-opacity:1;fill-rule:nonzero;stroke:none" transform="matrix(17.58922 0 0 -17.58922 4459.167 16.16)"/><path d="M0 0v5.443h-3.705V0c0-4.45-1.775-8.141-5.925-10.729l1.628-2.097c2.748 1.443 4.805 3.623 6.15 5.988 1.342-2.365 3.4-4.545 6.144-5.988l1.634 2.097C1.771-8.141 0-4.45 0 0" style="fill:#0b1f8f;fill-opacity:1;fill-rule:nonzero;stroke:none" transform="matrix(17.58922 0 0 -17.58922 4256.703 115.674)"/><path d="M0 0v6.909h-3.704v-19.19H0v9.725h3.081V0Z" style="fill:#0b1f8f;fill-opacity:1;fill-rule:nonzero;stroke:none" transform="matrix(17.58922 0 0 -17.58922 2299.473 137.678)"/><path d="M0 0c0 2.251 1.396 4.076 3.123 4.076 1.725 0 3.123-1.825 3.123-4.076 0-2.251-1.398-4.077-3.123-4.077C1.396-4.077 0-2.251 0 0m9.951 0c0 2.01-.945 3.699-2.43 4.805h2.589v2.558H4.93v2.334H1.225V7.363h-5.182V4.805h2.681C-2.76 3.699-3.705 2.01-3.705 0c0-3.619 3.057-6.555 6.828-6.555 3.772 0 6.828 2.936 6.828 6.555" style="fill:#0b1f8f;fill-opacity:1;fill-rule:nonzero;stroke:none" transform="matrix(17.58922 0 0 -17.58922 2001.504 170.563)"/><path d="M0 0v2.556h-13.885V8.28h-3.705V2.183c0-1.132.893-2.183 2.329-2.183Z" style="fill:#0b1f8f;fill-opacity:1;fill-rule:nonzero;stroke:none" transform="matrix(17.58922 0 0 -17.58922 2302.925 478.195)"/><path d="M0 0v-11.598c0-1.134.895-2.188 2.33-2.188h4.76v-7.71h-8.452v-2.56h20.608v2.56h-8.451v7.71h6.672v2.562H3.705v8.663h13.762V0Z" style="fill:#0b1f8f;fill-opacity:1;fill-rule:nonzero;stroke:none" transform="matrix(17.58922 0 0 -17.58922 2868.357 22.377)"/><path d="M0 0v4.42h8.844v2.559H6.98v6.919c0 1.134-.895 2.188-2.331 2.188h-15.895v-2.561H3.273V6.979h-15.82V4.42h8.844V0h-7.543v-2.562H3.273v-7.35H6.98V0Z" style="fill:#0b1f8f;fill-opacity:1;fill-rule:nonzero;stroke:none" transform="matrix(17.58922 0 0 -17.58922 2615.992 305.316)"/><path d="M0 0c0-1.133.894-2.186 2.329-2.186h4.955v-6.148h-8.648v-2.561h21.002v2.561h-8.647v6.148h6.865v2.56H3.701V4.03h14.155v6.944c0 1.133-.894 2.188-2.33 2.188H0v-2.561h14.151V6.588H0Z" style="fill:#0b1f8f;fill-opacity:1;fill-rule:nonzero;stroke:none" transform="matrix(17.58922 0 0 -17.58922 3287.561 253.88)"/><path d="M0 0v-2.561h14.328v-8.405h-5.17v4.978H5.453v-4.978h-7.337v-2.56h22.171v2.56h-2.254V-2.188c0 1.134-.895 2.188-2.33 2.188Z" style="fill:#0b1f8f;fill-opacity:1;fill-rule:nonzero;stroke:none" transform="matrix(17.58922 0 0 -17.58922 3711.231 22.377)"/><path d="M0 0c-2.336 0-4.229 1.606-4.229 3.586 0 1.981 1.893 3.587 4.229 3.587 2.336 0 4.229-1.606 4.229-3.587C4.229 1.606 2.336 0 0 0m0 9.666c-4.379 0-7.933-2.722-7.933-6.08C-7.933.227-4.379-2.496 0-2.496c4.383 0 7.932 2.723 7.932 6.082 0 3.358-3.549 6.08-7.932 6.08" style="fill:#0b1f8f;fill-opacity:1;fill-rule:nonzero;stroke:none" transform="matrix(17.58922 0 0 -17.58922 3870.943 454.695)"/></svg>