<svg xmlns="http://www.w3.org/2000/svg" xml:space="preserve" width="1011.1368" height="300" viewBox="0 0 1011.1369 299.99999"><path d="M0 0c-2.273-2.239-4.963-2.699-8.301-2.699H-36.91c-2.278 0-4.299 1.84-5.244 4.433h-7.432c1.354-6.255 6.522-10.926 12.676-10.926h28.609c4.071 0 9.295.548 13.627 4.809l4.682 4.61-4.889 4.81C2.328 2.289 0 0 0 0" style="fill:#ed1b2f;fill-opacity:1;fill-rule:nonzero;stroke:none" transform="matrix(10.58306 0 0 -10.58306 648.878 202.72)"/><path d="M0 0h18.648c.823 0 1.741-.909 1.741-2.214 0-1.307-.918-2.219-1.741-2.219H-5.244a9.52 9.52 0 0 1-.567-3.247c0-1.153.206-2.255.567-3.247h23.892c4.94 0 8.956 3.908 8.956 8.713 0 4.802-4.016 8.708-8.956 8.708H0c-6.154 0-11.322-4.671-12.676-10.927h7.432C-4.299-1.839-2.277 0 0 0" style="fill:#ed1b2f;fill-opacity:1;fill-rule:nonzero;stroke:none" transform="matrix(10.58306 0 0 -10.58306 258.256 68.726)"/><path d="M0 0c0 1.151.205 2.254.566 3.247h-7.431a15.26 15.26 0 0 1 0-6.494H.566A9.515 9.515 0 0 0 0 0" style="fill:#802629;fill-opacity:1;fill-rule:nonzero;stroke:none" transform="matrix(10.58306 0 0 -10.58306 196.762 150.001)"/><path d="M0 0h-8.121c-1.99 0-3.606-1.454-3.606-3.247 0-1.795 1.616-3.247 3.606-3.247H0A15.26 15.26 0 0 0 0 0" style="fill:#ed1b2f;fill-opacity:1;fill-rule:nonzero;stroke:none" transform="matrix(10.58306 0 0 -10.58306 124.107 115.642)"/><path d="M0 0c2.275 2.239 4.965 2.698 8.303 2.698h2.375c1.992 0 3.609 1.453 3.609 3.247 0 1.793-1.617 3.247-3.609 3.247H8.303c-4.071 0-9.297-.547-13.627-4.809 0 0-2.03-1.995-4.569-4.495l4.891-4.814z" style="fill:#ed1b2f;fill-opacity:1;fill-rule:nonzero;stroke:none" transform="matrix(10.58306 0 0 -10.58306 859.485 97.283)"/><path d="M0 0c-2.059 2.029-4.631 3.58-7.477 4.152-1.941.389-3.908-.531-4.443-2.26-.533-1.727.592-3.517 2.51-3.998 1.623-.404 2.92-1.128 4.086-2.276L.264-9.87c1.591 1.569 3.338 3.285 4.888 4.814z" style="fill:#0071ce;fill-opacity:1;fill-rule:nonzero;stroke:none" transform="matrix(10.58306 0 0 -10.58306 700.264 44.961)"/><path d="M0 0h-2.379c-3.336 0-6.023.458-8.299 2.697l-5.047 4.981-4.89-4.81 4.613-4.554c4.33-4.262 9.557-4.808 13.623-4.808H0c1.994 0 3.607 1.454 3.607 3.247C3.607-1.453 1.994 0 0 0" style="fill:#0071ce;fill-opacity:1;fill-rule:nonzero;stroke:none" transform="matrix(10.58306 0 0 -10.58306 972.964 230.671)"/><path d="M0 0c-1.551-1.529-3.297-3.245-4.889-4.813L0-9.624l4.891 4.811Z" style="fill:#0b1f8f;fill-opacity:1;fill-rule:nonzero;stroke:none" transform="matrix(10.58306 0 0 -10.58306 754.792 98.471)"/></svg>